{"title":"Schubert String Quartets 13, 14 - Guarneri Quartet","uid":10500250,"size":344530788,"categoryP":"audio","categoryS":"other","magnet":"?xt=urn:btih:483c448b525099847a8a4794f3971ed96688493f&amp;dn=Schubert+String+Quartets+13%2C+14+-+Guarneri+Quartet&amp;tr=udp%3A%2F%2Ftracker.openbittorrent.com%3A80&amp;tr=udp%3A%2F%2Fopen.demonii.com%3A1337&amp;tr=udp%3A%2F%2Ftracker.coppersurfer.tk%3A6969&amp;tr=udp%3A%2F%2Fexodus.desync.com%3A6969","seeders":4,"leechers":0,"uploader":"magneez","files":5,"time":1404685946,"description":"FLAC+CUE\n\n\nREM GENRE Classical\nREM DATE 1997\nREM DISCID 7B106708\nREM COMMENT &quot;ExactAudioCopy v0.99pb5&quot;\nPERFORMER &quot;Franz Schubert&quot;\nTITLE &quot;Schubert String Quartets 13 &amp;14  Guarneri  Quartet)&quot;\nFILE &quot;Schubert String Quartets 13 &amp;14  Guarneri  Quartet.flac&quot; WAVE\n  TRACK 01 AUDIO\n    TITLE &quot;String Quartet No. 13 In A Minor, Op.29 ('Rosamunde'): I. Allegro ma non troppo&quot;\n    PERFORMER &quot;Franz Schubert&quot;\n    INDEX 01 00:00:00\n  TRACK 02 AUDIO\n    TITLE &quot;String Quartet No. 13 In A Minor, Op.29 ('Rosamunde'): II. Andante&quot;\n    PERFORMER &quot;Franz Schubert&quot;\n    INDEX 01 10:46:50\n  TRACK 03 AUDIO\n    TITLE &quot;String Quartet No. 13 In A Minor, Op.29 ('Rosamunde'): III. Menuetto. Allegretto&quot;\n    PERFORMER &quot;Franz Schubert&quot;\n    INDEX 01 17:40:15\n  TRACK 04 AUDIO\n    TITLE &quot;String Quartet No. 13 In A Minor, Op.29 ('Rosamunde'): IV. Allegro moderato&quot;\n    PERFORMER &quot;Franz Schubert&quot;\n    INDEX 01 25:17:40\n  TRACK 05 AUDIO\n    TITLE &quot;String Quartet No. 14 In D Minor, D.810, ('Death And The Maiden'): I. Allegro&quot;\n    PERFORMER &quot;Franz Schubert&quot;\n    INDEX 00 32:46:71\n    INDEX 01 32:56:02\n  TRACK 06 AUDIO\n    TITLE &quot;String Quartet No. 14 In D Minor, D.810, ('Death And The Maiden'): II. Andant...&quot;\n    PERFORMER &quot;Franz Schubert&quot;\n    INDEX 01 44:27:34\n  TRACK 07 AUDIO\n    TITLE &quot;String Quartet No. 14 In D Minor, D.810, ('Death And The Maiden'): III. Scher...&quot;\n    PERFORMER &quot;Franz Schubert&quot;\n    INDEX 01 57:19:00\n  TRACK 08 AUDIO\n    TITLE &quot;String Quartet No. 14 In D Minor, D.810, ('Death And The Maiden'): IV. Presto&quot;\n    PERFORMER &quot;Franz Schubert&quot;\n    INDEX 01 61:19:72\n","torrent":{"xt":"urn:btih:483c448b525099847a8a4794f3971ed96688493f","amp;dn":"Schubert+String+Quartets+13%2C+14+-+Guarneri+Quartet","amp;tr":["udp%3A%2F%2Ftracker.openbittorrent.com%3A80","udp%3A%2F%2Fopen.demonii.com%3A1337","udp%3A%2F%2Ftracker.coppersurfer.tk%3A6969","udp%3A%2F%2Fexodus.desync.com%3A6969"],"infoHash":"483c448b525099847a8a4794f3971ed96688493f","infoHashBuffer":{"type":"Buffer","data":[72,60,68,139,82,80,153,132,122,138,71,148,243,151,30,217,102,136,73,63]},"announce":[],"urlList":[]}}